<svg width="32" height="31" viewBox="0 0 32 31" fill="none" xmlns="http://www.w3.org/2000/svg">
<g filter="url(#filter0_d_964_17537)">
<path fill-rule="evenodd" clip-rule="evenodd" d="M18.2367 7.77151C17.7729 8.09308 17.2497 8.31905 16.6976 8.43623C16.1456 8.55342 15.5757 8.55949 15.0212 8.45407C14.4668 8.34865 13.9389 8.13385 13.4684 7.82223C12.9979 7.5106 12.5941 7.10838 12.2807 6.63904C11.9673 6.1697 11.7505 5.64263 11.643 5.08861C11.5354 4.53458 11.5393 3.96468 11.6544 3.41218C11.7695 2.85967 11.9935 2.33562 12.3133 1.8706C12.6331 1.40559 13.0423 1.00893 13.517 0.703761C14.4544 0.0846608 15.5986 -0.138187 16.6998 0.0839308C17.8009 0.306048 18.7693 0.955065 19.3933 1.88911C20.0173 2.82315 20.2462 3.96625 20.0298 5.06853C19.8135 6.17081 19.1696 7.14262 18.2388 7.77151H18.2367ZM17.0573 2.47176C16.8259 2.30528 16.5633 2.18706 16.2853 2.12415C16.0072 2.06124 15.7193 2.05493 15.4388 2.10558C15.1583 2.15622 14.8908 2.26281 14.6523 2.41897C14.4138 2.57514 14.2091 2.7777 14.0505 3.0146C13.8919 3.25149 13.7826 3.51788 13.7291 3.79789C13.6756 4.07791 13.679 4.36583 13.739 4.64451C13.7991 4.92319 13.9146 5.18694 14.0788 5.42004C14.2429 5.65315 14.4522 5.85086 14.6943 6.00139C15.162 6.28552 15.7214 6.37824 16.2558 6.26023C16.7902 6.14222 17.2585 5.82258 17.563 5.36789C17.8676 4.9132 17.985 4.35852 17.8908 3.81941C17.7966 3.2803 17.498 2.79833 17.0573 2.47389V2.47176ZM22.6036 2.53551C23.2164 2.12326 23.9539 1.93762 24.6889 2.01054C25.4239 2.08346 26.1105 2.41038 26.6304 2.93501C27.0009 3.30848 27.2741 3.76715 27.426 4.27079C27.578 4.77443 27.604 5.30766 27.5018 5.82371C27.3997 6.33975 27.1724 6.82284 26.8401 7.23061C26.5077 7.63838 26.0804 7.95837 25.5956 8.16251C25.0133 8.40598 24.3715 8.47011 23.7526 8.34669C23.1336 8.22328 22.5656 7.91794 22.1212 7.46976C21.7872 7.13405 21.5315 6.72865 21.3725 6.28259C21.2135 5.83653 21.155 5.36083 21.2013 4.88954C21.2476 4.41825 21.3975 3.96302 21.6403 3.55643C21.8831 3.14984 22.2127 2.80194 22.6057 2.53764L22.6036 2.53551ZM23.6236 5.95676C23.8231 6.15543 24.0933 6.2667 24.3749 6.2661C24.5143 6.2658 24.6523 6.23805 24.7809 6.18443C24.9096 6.13081 25.0265 6.05236 25.1249 5.95357C25.2232 5.85479 25.3012 5.73759 25.3543 5.60868C25.4073 5.47977 25.4345 5.34167 25.4342 5.20226C25.4339 5.06285 25.4062 4.92486 25.3525 4.79618C25.2989 4.66749 25.2205 4.55063 25.1217 4.45226C24.9238 4.25328 24.6564 4.13899 24.3758 4.13351C24.2357 4.13323 24.0968 4.16073 23.9674 4.21442C23.8379 4.26811 23.7204 4.34694 23.6216 4.44633C23.5228 4.54573 23.4447 4.66372 23.3918 4.7935C23.3388 4.92327 23.3122 5.06224 23.3133 5.20239C23.314 5.48539 23.4253 5.7569 23.6236 5.95889V5.95676ZM5.65455 24.3975H9.5008V26.5331H5.65455C4.98123 26.5271 4.3378 26.2542 3.8653 25.7745C3.39099 25.293 3.12533 24.6441 3.1258 23.9683V20.122C2.8397 20.1124 2.5585 20.045 2.29919 19.9237C2.03988 19.8025 1.80783 19.6299 1.61705 19.4165C1.41433 19.2112 1.25524 18.967 1.14934 18.6985C1.04343 18.4301 0.992909 18.1431 1.0008 17.8546V13.2179C1.00718 12.2149 1.40455 11.2565 2.1058 10.5446C2.80493 9.84126 3.75055 9.43964 4.7408 9.43326H8.6508C8.1234 10.0614 7.72612 10.788 7.48205 11.571H4.7408C4.30951 11.5834 3.89915 11.7597 3.5933 12.064C3.29287 12.3729 3.1251 12.787 3.1258 13.2179V17.9609H5.2508V23.9661C5.24587 24.024 5.25275 24.0823 5.27101 24.1375C5.28928 24.1926 5.31855 24.2435 5.35705 24.287C5.44247 24.353 5.54664 24.3902 5.65455 24.3933V24.3975ZM21.167 10.5468C20.8193 10.1957 20.4057 9.91675 19.9498 9.72602C19.494 9.53529 19.0049 9.43652 18.5108 9.43539H13.2408C12.2502 9.44331 11.3029 9.84284 10.6058 10.5468C9.90455 11.2586 9.50718 12.217 9.5008 13.22V19.9733C9.4978 20.5531 9.71853 21.1118 10.1171 21.533C10.3081 21.7462 10.5402 21.9185 10.7994 22.0397C11.0587 22.161 11.3398 22.2286 11.6258 22.2385V27.1749C11.6238 27.5118 11.6885 27.8458 11.8161 28.1576C11.9438 28.4695 12.1319 28.7529 12.3696 28.9918C12.7521 29.3488 13.2344 29.5804 13.7508 29.6548H18.0008C18.5985 29.5763 19.1461 29.2797 19.5384 28.8219C19.9306 28.3642 20.1398 27.7776 20.1258 27.1749V22.2364C20.4119 22.2268 20.6931 22.1594 20.9524 22.0381C21.2117 21.9169 21.4438 21.7443 21.6346 21.5309C21.8371 21.3259 21.9961 21.082 22.102 20.814C22.2079 20.5459 22.2585 20.2592 22.2508 19.9711V13.2179C22.2523 12.2195 21.8633 11.2601 21.167 10.5446V10.5468ZM20.1258 20.0774H18.0008V27.1749C17.9987 27.2869 17.953 27.3937 17.8733 27.4724C17.837 27.5153 17.7913 27.5492 17.7396 27.5713C17.688 27.5935 17.6319 27.6032 17.5758 27.5999H14.1546C14.0435 27.5947 13.9384 27.5483 13.8598 27.4697C13.7812 27.3911 13.7347 27.2859 13.7296 27.1749V20.0774H11.6258V13.2179C11.6258 12.7865 11.7937 12.3721 12.0933 12.064C12.3992 11.7597 12.8095 11.5834 13.2408 11.571H18.5108C18.8327 11.5767 19.146 11.6762 19.4121 11.8574C19.6782 12.0386 19.8857 12.2936 20.0089 12.591C20.0898 12.7899 20.1296 13.0032 20.1258 13.2179V20.0774ZM26.0971 26.531H22.2508V24.3954H26.0758C26.1837 24.3924 26.2879 24.3551 26.3733 24.2891C26.4161 24.2473 26.4496 24.1969 26.4715 24.1413C26.4935 24.0856 26.5035 24.0259 26.5008 23.9661V17.9609H28.6258V13.2179C28.6265 12.787 28.4587 12.3729 28.1583 12.064C27.8524 11.7597 27.4421 11.5834 27.0108 11.571H24.2696C24.0256 10.788 23.6283 10.0613 23.1008 9.43326H27.0108C28.0012 9.44234 28.9481 9.84169 29.6458 10.5446C30.347 11.2565 30.7444 12.2149 30.7508 13.2179V17.8546C30.7508 18.4348 30.5319 18.9915 30.1367 19.4123C29.7414 19.8351 29.2017 20.088 28.6258 20.1199V23.9661C28.6258 24.644 28.3602 25.2921 27.8863 25.7724C27.4138 26.2521 26.7704 26.5249 26.0971 26.531ZM7.3758 1.99576C6.74346 1.99503 6.12531 2.18314 5.60057 2.536C5.07583 2.88885 4.66842 3.39037 4.43055 3.97626C4.19049 4.56195 4.12817 5.20536 4.25136 5.82623C4.37456 6.4471 4.67781 7.01797 5.1233 7.46764C5.56863 7.91678 6.13774 8.22298 6.75793 8.34712C7.37812 8.47126 8.02124 8.4077 8.60514 8.16456C9.18903 7.92142 9.68719 7.50975 10.036 6.98212C10.3848 6.45449 10.5684 5.83486 10.5633 5.20239C10.5633 4.35239 10.2276 3.53639 9.6283 2.93501C9.33323 2.63779 8.98233 2.40181 8.59577 2.24063C8.20921 2.07944 7.79462 1.99622 7.3758 1.99576ZM7.3758 6.27126C7.23565 6.27155 7.09684 6.24405 6.96739 6.19035C6.83793 6.13666 6.72041 6.05784 6.6216 5.95844C6.5228 5.85905 6.44468 5.74105 6.39176 5.61128C6.33885 5.48151 6.31218 5.34253 6.3133 5.20239C6.31385 4.92017 6.42577 4.64959 6.62473 4.44944C6.82368 4.24928 7.0936 4.13575 7.3758 4.13351C7.65714 4.13847 7.92548 4.25287 8.12386 4.45244C8.32223 4.652 8.43503 4.92102 8.4383 5.20239C8.43775 5.4846 8.32583 5.75519 8.12688 5.95534C7.92792 6.15549 7.658 6.26902 7.3758 6.27126Z" fill="#FF7B47"/>
</g>
<defs>
<filter id="filter0_d_964_17537" x="-3" y="0" width="37.751" height="37.6548" filterUnits="userSpaceOnUse" color-interpolation-filters="sRGB">
<feFlood flood-opacity="0" result="BackgroundImageFix"/>
<feColorMatrix in="SourceAlpha" type="matrix" values="0 0 0 0 0 0 0 0 0 0 0 0 0 0 0 0 0 0 127 0" result="hardAlpha"/>
<feOffset dy="4"/>
<feGaussianBlur stdDeviation="2"/>
<feComposite in2="hardAlpha" operator="out"/>
<feColorMatrix type="matrix" values="0 0 0 0 0 0 0 0 0 0 0 0 0 0 0 0 0 0 0.25 0"/>
<feBlend mode="normal" in2="BackgroundImageFix" result="effect1_dropShadow_964_17537"/>
<feBlend mode="normal" in="SourceGraphic" in2="effect1_dropShadow_964_17537" result="shape"/>
</filter>
</defs>
</svg>
